HIERARCHY
ROOT Hips
{
	OFFSET 0.000000 0.000000 0.000000
	CHANNELS 6 Xposition Yposition Zposition Xrotation Yrotation Zrotation
	JOINT LeftUpLeg_virtual
	{
		OFFSET 0.000000 0.000000 0.000000
		CHANNELS 3 Xrotation Yrotation Zrotation
		JOINT LeftUpLeg
		{
			OFFSET 11.394100 -6.187798 -0.413800
			CHANNELS 3 Xrotation Yrotation Zrotation
			JOINT LeftLeg
			{
				OFFSET 0.430247 -32.302673 3.732800
				CHANNELS 3 Xrotation Yrotation Zrotation
				JOINT LeftFoot
				{
					OFFSET -0.430247 -48.264931 -6.423300
					CHANNELS 3 Xrotation Yrotation Zrotation
					JOINT LeftToeBase
					{
						OFFSET 4.230900 -16.068199 23.438400
						CHANNELS 3 Xrotation Yrotation Zrotation
						JOINT LeftToe_End
						{
							OFFSET 4.510700 0.695400 19.974600
							CHANNELS 3 Xrotation Yrotation Zrotation
							End Site
							{
								OFFSET 0 0 0
							}
						}
					}
				}
			}
		}
	}
	JOINT RightUpLeg_virtual
	{
		OFFSET 0.000000 0.000000 0.000000
		CHANNELS 3 Xrotation Yrotation Zrotation
		JOINT RightUpLeg
		{
			OFFSET -11.333700 -6.187798 -0.413800
			CHANNELS 3 Xrotation Yrotation Zrotation
			JOINT RightLeg
			{
				OFFSET -0.430392 -32.302628 3.733000
				CHANNELS 3 Xrotation Yrotation Zrotation
				JOINT RightFoot
				{
					OFFSET 0.430392 -48.264973 -6.423500
					CHANNELS 3 Xrotation Yrotation Zrotation
					JOINT RightToeBase
					{
						OFFSET -4.230900 -16.068199 23.438400
						CHANNELS 3 Xrotation Yrotation Zrotation
						JOINT RightToe_End
						{
							OFFSET -4.510700 0.695400 19.974600
							CHANNELS 3 Xrotation Yrotation Zrotation
							End Site
							{
								OFFSET 0 0 0
							}
						}
					}
				}
			}
		}
	}
	JOINT Spine_virtual
	{
		OFFSET 0.000000 0.000000 0.000000
		CHANNELS 3 Xrotation Yrotation Zrotation
		JOINT Spine
		{
			OFFSET -0.002400 12.777504 0.315300
			CHANNELS 3 Xrotation Yrotation Zrotation
			JOINT Spine1
			{
				OFFSET -0.002067 5.816869 0.032633
				CHANNELS 3 Xrotation Yrotation Zrotation
				JOINT Spine1_split
				{
					OFFSET -0.002067 5.816869 0.032633
					CHANNELS 3 Xrotation Yrotation Zrotation
					JOINT Spine2
					{
						OFFSET -0.002067 5.816869 0.032633
						CHANNELS 3 Xrotation Yrotation Zrotation
						JOINT Neck_virtual
						{
							OFFSET 0.000000 0.000000 0.000000
							CHANNELS 3 Xrotation Yrotation Zrotation
							JOINT Neck
							{
								OFFSET -0.003700 21.199493 -0.826900
								CHANNELS 3 Xrotation Yrotation Zrotation
								JOINT Head
								{
									OFFSET 0.000000 20.442200 4.834800
									CHANNELS 3 Xrotation Yrotation Zrotation
									JOINT HeadTop_End
									{
										OFFSET 0.000000 34.668396 4.968400
										CHANNELS 3 Xrotation Yrotation Zrotation
										End Site
										{
											OFFSET 0 0 0
										}
									}
								}
							}
						}
						JOINT LeftShoulder_virtual
						{
							OFFSET 0.000000 0.000000 0.000000
							CHANNELS 3 Xrotation Yrotation Zrotation
							JOINT LeftShoulder
							{
								OFFSET 3.288150 8.794197 -1.372250
								CHANNELS 3 Xrotation Yrotation Zrotation
								JOINT LeftShoulder_split
								{
									OFFSET 3.288150 8.794197 -1.372250
									CHANNELS 3 Xrotation Yrotation Zrotation
									JOINT LeftArm
									{
										OFFSET 11.953299 -2.279007 -0.146200
										CHANNELS 3 Xrotation Yrotation Zrotation
										JOINT LeftForeArm
										{
											OFFSET 18.448900 0.000000 0.000000
											CHANNELS 3 Xrotation Yrotation Zrotation
											JOINT LeftHand
											{
												OFFSET 29.527798 0.000000 0.000000
												CHANNELS 3 Xrotation Yrotation Zrotation
												End Site
												{
													OFFSET 0 0 0
												}
											}
										}
									}
								}
							}
						}
						JOINT RightShoulder_virtual
						{
							OFFSET 0.000000 0.000000 0.000000
							CHANNELS 3 Xrotation Yrotation Zrotation
							JOINT RightShoulder
							{
								OFFSET -3.249400 8.794197 -1.372250
								CHANNELS 3 Xrotation Yrotation Zrotation
								JOINT RightShoulder_split
								{
									OFFSET -3.249400 8.794197 -1.372250
									CHANNELS 3 Xrotation Yrotation Zrotation
									JOINT RightArm
									{
										OFFSET -11.953299 -2.279007 -0.146200
										CHANNELS 3 Xrotation Yrotation Zrotation
										JOINT RightForeArm
										{
											OFFSET -18.448900 0.000000 0.000000
											CHANNELS 3 Xrotation Yrotation Zrotation
											JOINT RightHand
											{
												OFFSET -29.527802 0.000000 0.000000
												CHANNELS 3 Xrotation Yrotation Zrotation
												End Site
												{
													OFFSET 0 0 0
												}
											}
										}
									}
								}
							}
						}
					}
				}
			}
		}
	}
}
MOTION
Frames: 8
Frame Time: 0.03333333
-3.823399 88.100922 80.555771 0.000000 0.000000 0.000000 31.499757 14.251197 -6.369147 -12.207274 8.335848 3.419868 26.478864 22.489501 1.246091 -24.169716 1.707956 -25.315958 -21.002780 -9.014712 6.634386 0.000000 0.000000 0.000000 31.499757 14.251197 -6.369147 -80.206269 -8.106159 -4.521530 66.560774 -30.604865 -1.692395 -11.152055 -0.064626 -1.109916 -7.438698 8.536465 6.470200 0.000000 0.000000 0.000000 31.499757 14.251197 -6.369147 4.876371 -0.522675 1.465623 9.757381 0.096154 4.188235 0.000000 0.000000 0.000000 0.000000 0.000000 0.000000 9.757385 0.096154 4.188239 -7.024161 0.658827 -0.591049 -4.707669 0.245714 2.478136 0.000000 0.000000 0.000000 9.757385 0.096154 4.188239 3.226810 -20.189783 5.440781 0.000000 0.000000 0.000000 -45.210904 -21.558408 -43.409855 106.505004 -61.972991 119.184506 0.000000 0.000000 0.000000 9.757385 0.096154 4.188239 1.498010 10.178246 -3.380645 0.000000 0.000000 0.000000 -39.360488 5.475566 40.474239 111.651060 50.909959 -132.294084 0.000000 0.000000 0.000000 
-3.910360 87.787621 80.982872 0.000000 0.000000 0.000000 31.883702 14.237017 -6.440398 -12.747149 8.288668 3.656632 27.268412 22.564756 1.261375 -24.214742 1.634784 -25.845564 -21.587016 -9.158586 6.716234 0.000000 0.000000 0.000000 31.883702 14.237017 -6.440398 -81.089208 -8.289233 -4.603050 67.648120 -30.538011 -1.694434 -11.449290 -0.046621 -1.272138 -8.095331 8.380786 6.745999 0.000000 0.000000 0.000000 31.883702 14.237017 -6.440398 4.718221 -0.528161 1.460224 9.441403 0.085014 4.172059 0.000000 0.000000 0.000000 0.000000 0.000000 0.000000 9.441397 0.085011 4.172060 -7.147108 0.629940 -0.577765 -4.884836 0.126167 2.445928 0.000000 0.000000 0.000000 9.441397 0.085011 4.172060 3.345530 -20.374555 5.851156 0.000000 0.000000 0.000000 -45.404150 -21.632013 -43.071743 105.129575 -62.566254 117.849805 0.000000 0.000000 0.000000 9.441397 0.085011 4.172060 1.512610 10.066764 -3.702967 0.000000 0.000000 0.000000 -39.856862 5.966717 40.669750 110.736641 51.476755 -131.206049 0.000000 0.000000 0.000000 
-3.985615 87.489532 81.386948 0.000000 0.000000 0.000000 32.307737 14.252416 -6.538083 -13.345099 8.235514 3.897547 28.048334 22.643279 1.276299 -24.226474 1.558275 -26.371905 -22.156401 -9.346895 6.789941 0.000000 0.000000 0.000000 32.307737 14.252416 -6.538083 -81.938788 -8.486162 -4.715329 68.621927 -30.506213 -1.697871 -11.755824 -0.039109 -1.392535 -8.650475 8.281843 6.979090 0.000000 0.000000 0.000000 32.307737 14.252416 -6.538083 4.555376 -0.530737 1.469209 9.115780 0.078890 4.180707 0.000000 0.000000 0.000000 0.000000 0.000000 0.000000 9.115800 0.078891 4.180704 -7.260798 0.622986 -0.571327 -5.077523 0.011021 2.406297 0.000000 0.000000 0.000000 9.115800 0.078891 4.180704 3.462209 -20.556776 6.238193 0.000000 0.000000 0.000000 -45.726149 -21.783017 -42.867278 103.432444 -63.200382 116.209112 0.000000 0.000000 0.000000 9.115800 0.078891 4.180704 1.527261 9.940852 -4.054029 0.000000 0.000000 0.000000 -40.408396 6.474588 40.823624 109.704081 52.094990 -130.008170 0.000000 0.000000 0.000000 
-4.048712 87.191803 81.788986 0.000000 0.000000 0.000000 32.741499 14.264567 -6.635907 -13.944613 8.179989 4.128031 28.817849 22.723920 1.290426 -24.219344 1.483915 -26.896826 -22.737751 -9.546868 6.852397 0.000000 0.000000 0.000000 32.741499 14.264567 -6.635907 -82.768444 -8.683351 -4.857972 69.564541 -30.394229 -1.695320 -12.066480 -0.040061 -1.477428 -9.157119 8.148790 7.163165 0.000000 0.000000 0.000000 32.741499 14.264567 -6.635907 4.390546 -0.534880 1.477116 8.786296 0.069154 4.187629 0.000000 0.000000 0.000000 0.000000 0.000000 0.000000 8.786296 0.069154 4.187630 -7.375628 0.638788 -0.570447 -5.283595 -0.097786 2.366244 0.000000 0.000000 0.000000 8.786296 0.069154 4.187630 3.580657 -20.737417 6.622316 0.000000 0.000000 0.000000 -46.132645 -21.954675 -42.797774 101.473867 -63.830693 114.352953 0.000000 0.000000 0.000000 8.786296 0.069154 4.187630 1.543035 9.816508 -4.426530 0.000000 0.000000 0.000000 -40.990188 6.984715 41.013295 108.542313 52.751931 -128.683551 0.000000 0.000000 0.000000 
-4.107978 86.879967 82.203964 0.000000 0.000000 0.000000 33.162768 14.229045 -6.723233 -14.504520 8.123658 4.351718 29.576007 22.804050 1.304300 -24.221859 1.418523 -27.416753 -23.342943 -9.710419 6.906584 0.000000 0.000000 0.000000 33.162768 14.229045 -6.723233 -83.590198 -8.880346 -4.993032 70.529203 -30.166084 -1.685252 -12.374302 -0.044096 -1.545900 -9.661560 7.943869 7.305843 0.000000 0.000000 0.000000 33.162768 14.229045 -6.723233 4.225539 -0.543347 1.470893 8.456736 0.049888 4.168280 0.000000 0.000000 0.000000 0.000000 0.000000 0.000000 8.456727 0.049886 4.168277 -7.475447 0.675858 -0.577670 -5.503591 -0.207914 2.338960 0.000000 0.000000 0.000000 8.456727 0.049886 4.168277 3.700567 -20.916841 7.003155 0.000000 0.000000 0.000000 -46.556424 -22.125457 -42.724944 99.354623 -64.436490 112.357302 0.000000 0.000000 0.000000 8.456727 0.049886 4.168277 1.562820 9.722052 -4.810985 0.000000 0.000000 0.000000 -41.579285 7.494230 41.264000 107.227679 53.443782 -127.192561 0.000000 0.000000 0.000000 
-4.171082 86.542542 82.639893 0.000000 0.000000 0.000000 33.576575 14.139082 -6.815554 -15.026087 8.063437 4.590084 30.326077 22.876378 1.318540 -24.260323 1.370571 -27.933981 -23.951298 -9.822179 6.954239 0.000000 0.000000 0.000000 33.576575 14.139082 -6.815554 -84.426910 -9.096951 -5.096085 71.541437 -29.878417 -1.672525 -12.687545 -0.045132 -1.626439 -10.193753 7.692287 7.441802 0.000000 0.000000 0.000000 33.576575 14.139082 -6.815554 4.056737 -0.555420 1.451264 8.119900 0.022534 4.122998 0.000000 0.000000 0.000000 0.000000 0.000000 0.000000 8.119894 0.022529 4.122998 -7.532403 0.728854 -0.600432 -5.741314 -0.331649 2.317627 0.000000 0.000000 0.000000 8.119894 0.022529 4.122998 3.816739 -21.095070 7.355333 0.000000 0.000000 0.000000 -46.951974 -22.334551 -42.484678 97.126431 -65.036481 110.196196 0.000000 0.000000 0.000000 8.119894 0.022529 4.122998 1.589204 9.675216 -5.205954 0.000000 0.000000 0.000000 -42.155453 7.989155 41.531088 105.751293 54.166248 -125.522621 0.000000 0.000000 0.000000 
-4.236925 86.175346 83.101456 0.000000 0.000000 0.000000 34.012139 14.032910 -6.930360 -15.542384 7.995529 4.854592 31.071449 22.934385 1.332599 -24.329328 1.345022 -28.461323 -24.541061 -9.915973 6.986824 0.000000 0.000000 0.000000 34.012139 14.032910 -6.930360 -85.319021 -9.346914 -5.190213 72.620470 -29.606797 -1.662531 -13.019943 -0.036896 -1.751323 -10.781834 7.427518 7.622722 0.000000 0.000000 0.000000 34.012139 14.032910 -6.930360 3.875936 -0.568970 1.426962 7.759070 -0.007661 4.068835 0.000000 0.000000 0.000000 0.000000 0.000000 0.000000 7.759079 -0.007661 4.068835 -7.533805 0.785148 -0.637426 -6.001977 -0.471336 2.273182 0.000000 0.000000 0.000000 7.759079 -0.007661 4.068835 3.925321 -21.272419 7.662589 0.000000 0.000000 0.000000 -47.305590 -22.623105 -42.040139 94.800171 -65.650952 107.819823 0.000000 0.000000 0.000000 7.759079 -0.007661 4.068835 1.621059 9.666505 -5.608416 0.000000 0.000000 0.000000 -42.699727 8.436525 41.772149 104.152947 54.894592 -123.735229 0.000000 0.000000 0.000000 
-4.297720 85.782440 83.594742 0.000000 0.000000 0.000000 34.497691 13.954065 -7.064453 -16.082329 7.919419 5.133785 31.812159 22.977265 1.344498 -24.386948 1.339703 -29.017068 -25.123200 -10.041210 6.986192 0.000000 0.000000 0.000000 34.497691 13.954065 -7.064453 -86.312165 -9.612537 -5.324891 73.795358 -29.368038 -1.656079 -13.352648 -0.016916 -1.926910 -11.474299 7.140648 7.872894 0.000000 0.000000 0.000000 34.497691 13.954065 -7.064453 3.677053 -0.583281 1.402488 7.362036 -0.037189 4.016985 0.000000 0.000000 0.000000 0.000000 0.000000 0.000000 7.362036 -0.037189 4.016986 -7.484363 0.826242 -0.670601 -6.283535 -0.615414 2.182549 0.000000 0.000000 0.000000 7.362036 -0.037189 4.016986 4.029326 -21.449219 7.939960 0.000000 0.000000 0.000000 -47.612327 -22.969952 -41.501705 92.443175 -66.256387 105.312890 0.000000 0.000000 0.000000 7.362036 -0.037189 4.016986 1.654010 9.672769 -5.992068 0.000000 0.000000 0.000000 -43.199174 8.802925 42.000401 102.529561 55.577410 -121.967508 0.000000 0.000000 0.000000 
